<?xml version="1.0" encoding="UTF-8"?>
<svg width="1024" height="1024" viewBox="0 0 1024 1024" xmlns="http://www.w3.org/2000/svg">
  <!-- Background gradient -->
  <defs>
    <linearGradient id="bgGradient" x1="0%" y1="0%" x2="100%" y2="100%">
      <stop offset="0%" style="stop-color:#667eea;stop-opacity:1" />
      <stop offset="100%" style="stop-color:#764ba2;stop-opacity:1" />
    </linearGradient>
    <linearGradient id="accentGradient" x1="0%" y1="0%" x2="100%" y2="100%">
      <stop offset="0%" style="stop-color:#f093fb;stop-opacity:1" />
      <stop offset="100%" style="stop-color:#f5576c;stop-opacity:1" />
    </linearGradient>
  </defs>

  <!-- Rounded rectangle background -->
  <rect width="1024" height="1024" rx="180" fill="url(#bgGradient)"/>

  <!-- Split symbol - representing task/expense splitting -->
  <g transform="translate(512, 512)">
    <!-- Left half circle -->
    <path d="M -180 -180 A 180 180 0 0 1 -180 180 L -80 180 A 80 80 0 0 0 -80 -180 Z"
          fill="white" opacity="0.95"/>

    <!-- Right half circle -->
    <path d="M 180 -180 A 180 180 0 0 0 180 180 L 80 180 A 80 80 0 0 1 80 -180 Z"
          fill="white" opacity="0.95"/>

    <!-- Center divider with gradient -->
    <rect x="-15" y="-200" width="30" height="400" fill="url(#accentGradient)" rx="15"/>

    <!-- Top connector -->
    <circle cx="0" cy="-180" r="35" fill="url(#accentGradient)"/>

    <!-- Bottom connector -->
    <circle cx="0" cy="180" r="35" fill="url(#accentGradient)"/>
  </g>
</svg>