<?xml version="1.0" encoding="UTF-8"?>
<svg width="1242" height="2436" viewBox="0 0 1242 2436" xmlns="http://www.w3.org/2000/svg">
  <!-- Background gradient -->
  <defs>
    <linearGradient id="splashGradient" x1="0%" y1="0%" x2="100%" y2="100%">
      <stop offset="0%" style="stop-color:#667eea;stop-opacity:1" />
      <stop offset="50%" style="stop-color:#764ba2;stop-opacity:1" />
      <stop offset="100%" style="stop-color:#f093fb;stop-opacity:1" />
    </linearGradient>
  </defs>

  <rect width="1242" height="2436" fill="url(#splashGradient)"/>

  <!-- Logo (same as icon but scaled) -->
  <g transform="translate(621, 1000)">
    <!-- Left half circle -->
    <path d="M -120 -120 A 120 120 0 0 1 -120 120 L -55 120 A 55 55 0 0 0 -55 -120 Z"
          fill="white" opacity="0.95"/>

    <!-- Right half circle -->
    <path d="M 120 -120 A 120 120 0 0 0 120 120 L 55 120 A 55 55 0 0 1 55 -120 Z"
          fill="white" opacity="0.95"/>

    <!-- Center divider -->
    <rect x="-10" y="-135" width="20" height="270" fill="white" rx="10"/>

    <!-- Top connector -->
    <circle cx="0" cy="-120" r="23" fill="white"/>

    <!-- Bottom connector -->
    <circle cx="0" cy="120" r="23" fill="white"/>
  </g>

  <!-- App name -->
  <text x="621" y="1280" font-family="Arial, sans-serif" font-size="80" font-weight="bold"
        fill="white" text-anchor="middle">Splitz</text>

  <!-- Tagline -->
  <text x="621" y="1350" font-family="Arial, sans-serif" font-size="36"
        fill="white" opacity="0.9" text-anchor="middle">Organize. Track. Achieve.</text>
</svg>